<svg width="160" height="20" fill="none" xmlns="http://www.w3.org/2000/svg"><path fill="#FFC700" d="M0 7h160v8H0z"/><path d="M35.15 17V4.22h2.94v4.95h1l3.57-4.95h3.28l-4.58 6.17L46.33 17h-3.58L39 11.85h-.92V17h-2.94Zm16.31 0V4.22h5.45a4.03 4.03 0 0 1 3 1.37 4.49 4.49 0 0 1 1.18 2.95c0 .74-.17 1.45-.52 2.1a4.3 4.3 0 0 1-1.42 1.63c-.62.4-1.33.6-2.15.6h-2.59V17h-2.95Zm2.95-6.7h2.41c.35 0 .65-.15.9-.45.26-.3.38-.73.38-1.31 0-.59-.15-1.02-.45-1.3a1.3 1.3 0 0 0-.93-.43h-2.3v3.5Zm20.85 4.1V17h-8.98V4.22h8.82v2.6h-5.87V9.3h5.04v2.39h-5.04v2.72h6.03Zm4.67 5.05V14.4h.72c.63 0 1.1-.5 1.42-1.51.33-1.02.53-2.69.6-4.99l.1-3.69h8.86V14.4h1.75v5.04h-2.6V17H82.5v2.45h-2.57Zm4.18-5.04h4.57V6.8h-3.2l-.06 1.51a27.3 27.3 0 0 1-.34 3.95c-.18.98-.5 1.7-.97 2.14ZM98.82 17V4.22h2.96v8.59l5.5-8.59h2.76V17h-2.95V8.47L101.65 17h-2.83Zm27.09-10.19H122V17h-2.94V6.81h-3.9V4.22h10.74v2.6Z" fill="#000"/></svg>