<svg width="280" height="40" fill="none" xmlns="http://www.w3.org/2000/svg"><path fill="#000" d="M0 0h280v40H0z"/><path d="M18.02 28.45V23.4h.72c.62 0 1.1-.5 1.42-1.51.32-1.02.52-2.69.6-4.99l.1-3.69h8.86v10.19h1.74v5.04h-2.59V26H20.6v2.45h-2.57Zm4.17-5.04h4.58v-7.6h-3.2l-.06 1.51a27.3 27.3 0 0 1-.34 3.95c-.18.98-.5 1.7-.98 2.14Zm20.25 2.7a6.11 6.11 0 0 1-4.6-2.02 6.76 6.76 0 0 1-1.74-4.5 6.35 6.35 0 0 1 1.8-4.48 6.27 6.27 0 0 1 7.17-1.4c.78.36 1.44.85 2 1.47a6.7 6.7 0 0 1 1.74 4.47 6.65 6.65 0 0 1-3.83 5.94c-.77.34-1.62.52-2.54.52Zm-3.33-6.48c0 .66.12 1.28.38 1.87.25.58.63 1.05 1.13 1.42a3 3 0 0 0 1.84.56c.74 0 1.36-.2 1.85-.58.5-.38.88-.87 1.12-1.45a4.74 4.74 0 0 0-.02-3.71 3.31 3.31 0 0 0-1.14-1.42 3 3 0 0 0-1.81-.54 3 3 0 0 0-1.88.57c-.49.37-.86.85-1.11 1.44-.24.59-.36 1.2-.36 1.84Zm14.27-.13a6.38 6.38 0 0 1 1.69-4.34 6.28 6.28 0 0 1 4.72-2.02c1.18 0 2.22.27 3.1.78a5 5 0 0 1 1.99 2.02l-2.27 1.58a2.72 2.72 0 0 0-1.82-1.58c-.37-.11-.73-.16-1.08-.16-.75 0-1.38.19-1.87.57-.5.39-.86.87-1.1 1.46a4.72 4.72 0 0 0 .06 3.7c.27.6.66 1.07 1.17 1.43.5.36 1.1.54 1.78.54.36 0 .73-.05 1.1-.16a3 3 0 0 0 1.02-.58c.33-.26.57-.6.74-1.02l2.41 1.42a3.78 3.78 0 0 1-1.24 1.62 6.74 6.74 0 0 1-4.1 1.35c-.93 0-1.77-.19-2.54-.56a6.71 6.71 0 0 1-3.31-3.64c-.3-.79-.45-1.6-.45-2.4Zm26.47-3.69h-3.9V26h-2.94V15.81H69.1v-2.59h10.75v2.6Zm7.1-2.59h3.19L94.53 26H91.5l-.99-2.86h-3.97L85.56 26h-3.02l4.4-12.78Zm3.08 7.88-1.5-4.91L87 21.1h3.03Zm19.92 1.62c0 .74-.2 1.35-.6 1.84-.39.48-.92.84-1.58 1.08-.64.24-1.36.36-2.16.36H99.4V13.22h7.1c.6 0 1.12.16 1.55.49.44.3.77.72 1.01 1.22s.36 1.03.36 1.57c0 .6-.15 1.17-.47 1.72-.3.56-.76.96-1.36 1.23.72.21 1.3.6 1.72 1.15.44.55.65 1.26.65 2.12Zm-7.61-6.98v2.65h2.9c.32 0 .6-.11.86-.33.25-.21.38-.55.38-1 0-.43-.12-.75-.34-.98a1.05 1.05 0 0 0-.8-.34h-3Zm4.6 6.39c0-.4-.1-.73-.34-1a1.07 1.07 0 0 0-.86-.42h-3.4v2.79h3.27c.38 0 .69-.13.94-.38.26-.26.4-.6.4-.99Zm8.4 3.87V13.22h2.94v4.95h1l3.57-4.95h3.28l-4.58 6.17 4.97 6.61h-3.58l-3.74-5.15h-.92V26h-2.94Zm19.53-12.78h3.19l4.4 12.78h-3.03l-1-2.86h-3.97l-.97 2.86h-3.03l4.41-12.78Zm3.08 7.88-1.5-4.91-1.52 4.91h3.02Z" fill="#FFE17F"/></svg>