<svg width="280" height="40" fill="none" xmlns="http://www.w3.org/2000/svg"><path fill="#000" d="M0 0h280v40H0z"/><path d="M21.15 26V13.22h8.06v2.6H24.1V26h-2.95ZM37.7 13.22h3.18L45.3 26h-3.03l-.99-2.86h-3.98L36.32 26H33.3l4.4-12.78Zm3.07 7.88L39.3 16.2l-1.53 4.91h3.02Zm9.36 4.9V13.22h5.46a4.03 4.03 0 0 1 3 1.37 4.49 4.49 0 0 1 1.17 2.95c0 .74-.17 1.45-.52 2.1a4.3 4.3 0 0 1-1.42 1.63c-.61.4-1.33.6-2.14.6h-2.6V26h-2.95Zm2.95-6.7h2.42c.34 0 .64-.15.9-.45.25-.3.37-.73.37-1.31 0-.59-.15-1.02-.45-1.3a1.3 1.3 0 0 0-.93-.43h-2.3v3.5Zm14.16-6.08h3.18L74.83 26H71.8l-.99-2.86h-3.98L65.86 26h-3.02l4.4-12.78Zm3.08 7.88-1.5-4.91-1.53 4.91h3.03Zm20.35-7.88V26h-2.95v-5.24h-5.1V26h-2.95V13.22h2.96v4.95h5.09v-4.95h2.95Zm15.79 2.6h-3.89V26h-2.95V15.81h-3.9v-2.59h10.74v2.6ZM111.58 26V13.22h2.95v8.59l5.51-8.59h2.76V26h-2.95v-8.53L114.4 26h-2.83Zm17 0 3.03-5a3.54 3.54 0 0 1-1.76-1.4 4.23 4.23 0 0 1-.63-2.33c0-.78.18-1.48.54-2.09a3.8 3.8 0 0 1 1.5-1.44c.66-.35 1.4-.52 2.24-.52h5.4V26h-2.95v-4.66h-1.35L131.92 26h-3.33Zm5.3-7.16h2.07v-3.12h-2.04c-.44 0-.84.12-1.18.36-.34.24-.5.64-.5 1.19 0 .54.15.94.46 1.19.32.25.72.38 1.19.38Z" fill="#FFE17F"/></svg>