<svg width="260" height="20" fill="none" xmlns="http://www.w3.org/2000/svg"><path fill="#FFE17F" d="M0 7h259v8H0z"/><path d="M19.65 17V4.22h10.63V17h-2.95V6.81H22.6V17h-2.95Zm22.34.1a6.11 6.11 0 0 1-4.59-2 6.76 6.76 0 0 1-1.74-4.5 6.35 6.35 0 0 1 1.8-4.49 6.27 6.27 0 0 1 7.16-1.4 6 6 0 0 1 2 1.47 6.7 6.7 0 0 1 1.74 4.47 6.65 6.65 0 0 1-3.83 5.94 6.2 6.2 0 0 1-2.54.52Zm-3.33-6.47c0 .66.13 1.28.38 1.87.25.58.63 1.05 1.13 1.42a3 3 0 0 0 1.84.56c.74 0 1.36-.2 1.85-.58.5-.38.88-.87 1.12-1.45a4.74 4.74 0 0 0-.02-3.71 3.31 3.31 0 0 0-1.13-1.42A3 3 0 0 0 42 6.78a3 3 0 0 0-1.87.57c-.5.37-.87.85-1.12 1.44-.24.59-.36 1.2-.36 1.84Zm14.29 8.82V14.4h.72c.62 0 1.1-.5 1.42-1.51.33-1.02.52-2.69.6-4.99l.1-3.69h8.86V14.4h1.75v5.04h-2.6V17h-8.28v2.45h-2.57Zm4.18-5.04h4.57V6.8h-3.2l-.06 1.51a27.3 27.3 0 0 1-.34 3.95c-.18.98-.5 1.7-.97 2.14ZM71.77 17V4.22h5.46a4.03 4.03 0 0 1 3 1.37 4.49 4.49 0 0 1 1.17 2.95c0 .74-.17 1.45-.52 2.1a4.3 4.3 0 0 1-1.42 1.63c-.61.4-1.33.6-2.14.6h-2.6V17h-2.95Zm2.95-6.7h2.42c.34 0 .64-.15.9-.45.25-.3.37-.73.37-1.31 0-.59-.15-1.02-.45-1.3a1.3 1.3 0 0 0-.93-.43h-2.3v3.5Zm17.46 6.8a6.11 6.11 0 0 1-4.59-2 6.76 6.76 0 0 1-1.74-4.5 6.35 6.35 0 0 1 1.8-4.49 6.27 6.27 0 0 1 7.16-1.4 6 6 0 0 1 2 1.47 6.7 6.7 0 0 1 1.75 4.47 6.65 6.65 0 0 1-3.83 5.94c-.78.34-1.62.52-2.55.52Zm-3.33-6.47c0 .66.13 1.28.38 1.87.25.58.63 1.05 1.14 1.42a3 3 0 0 0 1.83.56c.75 0 1.36-.2 1.86-.58.5-.38.87-.87 1.11-1.45a4.74 4.74 0 0 0-.02-3.71 3.31 3.31 0 0 0-1.13-1.42 3 3 0 0 0-1.82-.54 3 3 0 0 0-1.87.57c-.5.37-.86.85-1.12 1.44-.24.59-.36 1.2-.36 1.84ZM103.92 17V4.22h9.46v2.54h-6.51V9.3h3.15c1.45 0 2.54.35 3.27 1.03a3.5 3.5 0 0 1 1.12 2.74 3.9 3.9 0 0 1-1.06 2.86c-.71.7-1.77 1.06-3.17 1.06h-6.26Zm2.95-2.54h2.9c.57 0 .98-.15 1.22-.45.25-.31.38-.65.38-1.02 0-.36-.12-.68-.34-.96-.22-.29-.65-.43-1.3-.43h-2.86v2.86Zm23.72-10.24V17h-2.95v-5.24h-5.1V17h-2.95V4.22h2.95v4.95h5.1V4.22h2.95Zm15.03 10.19V17h-8.98V4.22h8.82v2.6h-5.87V9.3h5.04v2.39h-5.04v2.72h6.03Zm14.38 0V17h-9V4.22h8.82v2.6h-5.87V9.3H159v2.39h-5.03v2.72H160Zm18.79 2.7a6.11 6.11 0 0 1-4.6-2.02 6.76 6.76 0 0 1-1.74-4.5 6.35 6.35 0 0 1 1.8-4.48 6.27 6.27 0 0 1 7.17-1.4 6.1 6.1 0 0 1 2 1.47 6.7 6.7 0 0 1 1.74 4.47 6.65 6.65 0 0 1-3.83 5.94c-.77.34-1.62.52-2.54.52Zm-3.33-6.48c0 .66.12 1.28.38 1.87.25.58.63 1.05 1.13 1.42a3 3 0 0 0 1.84.56c.74 0 1.36-.2 1.85-.58.5-.38.88-.87 1.12-1.45a4.74 4.74 0 0 0-.02-3.71 3.31 3.31 0 0 0-1.14-1.42 3 3 0 0 0-1.81-.54 3 3 0 0 0-1.88.57c-.49.37-.86.85-1.11 1.44-.24.59-.36 1.2-.36 1.84Zm33.8-6.41V17h-2.95v-5.24h-5.1V17h-2.94V4.22h2.95v4.95h5.1V4.22h2.94Zm9.28 0h3.18l4.4 12.78h-3.03l-.99-2.86h-3.98l-.97 2.86h-3.02l4.4-12.78Zm3.07 7.88-1.49-4.91-1.53 4.91h3.02Zm8.11-1.6a6.38 6.38 0 0 1 1.7-4.34 6.28 6.28 0 0 1 4.72-2.02 6.1 6.1 0 0 1 3.1.78 5 5 0 0 1 1.99 2.02l-2.27 1.58a2.72 2.72 0 0 0-1.82-1.58 3.77 3.77 0 0 0-1.08-.16c-.75 0-1.38.19-1.87.57-.5.39-.86.87-1.1 1.46a4.72 4.72 0 0 0 .06 3.7c.27.6.66 1.07 1.16 1.43.5.36 1.1.54 1.79.54.36 0 .72-.05 1.1-.16a3 3 0 0 0 1.02-.58c.32-.26.57-.6.74-1.02l2.41 1.42a3.78 3.78 0 0 1-1.24 1.62 6.74 6.74 0 0 1-4.1 1.35c-.93 0-1.78-.19-2.54-.56a6.71 6.71 0 0 1-3.31-3.64c-.3-.79-.46-1.6-.46-2.4Z" fill="#000"/></svg>