<svg width="200" height="20" fill="none" xmlns="http://www.w3.org/2000/svg"><path fill="#FFC700" d="M0 7h200v8H0z"/><path d="M40.53 17V4.22h10.64V17h-2.95V6.81h-4.74V17h-2.95Zm22.35.1a6.11 6.11 0 0 1-4.6-2 6.76 6.76 0 0 1-1.74-4.5 6.35 6.35 0 0 1 1.8-4.49 6.27 6.27 0 0 1 7.16-1.4c.78.36 1.45.85 2 1.47a6.7 6.7 0 0 1 1.75 4.47 6.65 6.65 0 0 1-3.83 5.94c-.77.34-1.62.52-2.54.52Zm-3.33-6.47c0 .66.12 1.28.37 1.87.26.58.63 1.05 1.14 1.42a3 3 0 0 0 1.83.56c.75 0 1.37-.2 1.86-.58.5-.38.87-.87 1.11-1.45a4.74 4.74 0 0 0-.01-3.71 3.31 3.31 0 0 0-1.14-1.42 3 3 0 0 0-1.82-.54 3 3 0 0 0-1.87.57c-.49.37-.86.85-1.11 1.44-.24.59-.36 1.2-.36 1.84ZM74.6 17V4.22h2.93v4.95h1.01l3.56-4.95h3.28l-4.57 6.17L85.79 17H82.2l-3.74-5.15h-.92V17h-2.93ZM94.14 4.22h3.18l4.4 12.78h-3.03l-.99-2.86h-3.98L92.75 17h-3.02l4.4-12.78Zm3.08 7.88-1.5-4.91-1.53 4.91h3.03Zm13.8 5.03c-1.1 0-2.1-.23-2.99-.67a5.3 5.3 0 0 1-2.08-1.85l2.21-1.37c.29.44.67.8 1.13 1.06.48.25 1.04.38 1.66.38.7 0 1.22-.14 1.55-.42.32-.28.48-.66.48-1.11 0-.46-.15-.82-.46-1.1-.32-.28-.82-.41-1.52-.41h-1.63V9.42h1.65c.55 0 .96-.12 1.23-.36.26-.24.4-.56.4-.97 0-.4-.15-.71-.44-.95-.28-.26-.73-.38-1.37-.38a3.6 3.6 0 0 0-1.73.38c-.45.25-.8.57-1.04.97l-2.14-1.51a6.46 6.46 0 0 1 2-1.79c.79-.45 1.8-.68 3.04-.68 1.41 0 2.52.3 3.33.9.8.6 1.2 1.47 1.2 2.61 0 .55-.13 1.09-.41 1.6-.26.5-.7.9-1.33 1.19.7.2 1.25.58 1.64 1.12.38.54.57 1.17.57 1.89 0 .8-.21 1.48-.65 2.03-.43.54-1.02.95-1.76 1.24-.74.28-1.59.42-2.54.42Zm13.36-12.91h3.19l4.4 12.78h-3.03l-1-2.86h-3.97L123 17h-3.03l4.41-12.78Zm3.08 7.88-1.5-4.91-1.52 4.91h3.02Zm17.92-5.29h-3.89V17h-2.95V6.81h-3.9V4.22h10.74v2.6Zm5.1 10.19V4.22h2.95v4.41h2.37c1.42 0 2.52.37 3.32 1.12.8.74 1.2 1.75 1.2 3.04 0 1.27-.38 2.29-1.15 3.06a4.33 4.33 0 0 1-3.2 1.15h-5.5Zm2.95-2.41h2.1c.62 0 1.07-.17 1.35-.5.3-.34.44-.77.44-1.3 0-.46-.15-.86-.44-1.2-.27-.37-.72-.55-1.35-.55h-2.1v3.55Z" fill="#000"/></svg>