<svg width="260" height="20" fill="none" xmlns="http://www.w3.org/2000/svg"><path fill="#FFE17F" d="M0 7h259v8H0z"/><path d="M46.6 4.22V17h-2.95v-5.24h-5.1V17H35.6V4.22h2.95v4.95h5.1V4.22h2.95Zm9.27 0h3.19L63.45 17h-3.03l-.99-2.86h-3.97L54.48 17h-3.02l4.41-12.78Zm3.08 7.88-1.5-4.91-1.53 4.91h3.03Zm9.41 4.9V4.22H79V17h-2.95V6.81H71.3V17h-2.95Zm16.82 0V4.22h2.95v8.59l5.51-8.59h2.75V17h-2.95V8.47L88.01 17h-2.83Zm17.34 0V4.22h2.96v10.19h3.43V4.22h2.96v10.19h3.42V4.22h2.95V17h-15.72Zm21.83 0V4.22h2.96v8.59l5.5-8.59h2.76V17h-2.95V8.47L127.18 17h-2.83Zm27.09-10.19h-3.9V17h-2.94V6.81h-3.9V4.22h10.74v2.6Zm14.02 7.6V17h-8.98V4.22h8.82v2.6h-5.87V9.3h5.04v2.39h-5.04v2.72h6.03Zm24.2-10.19V17h-2.96v-5.24h-5.1V17h-2.94V4.22h2.95v4.95h5.1V4.22h2.94Zm9.26 0h3.19l4.4 12.78h-3.03l-1-2.86h-3.97l-.97 2.86h-3.03l4.41-12.78ZM202 12.1l-1.5-4.91-1.52 4.91H202Zm19.44 4.9V9.39l-2.75 5.54h-1.62l-2.76-5.54V17h-2.95V4.22h3.2l3.32 6.68 3.33-6.68h3.18V17h-2.95Z" fill="#000"/></svg>